<svg xmlns="http://www.w3.org/2000/svg" width="18.786" height="18.786" viewBox="0 0 18.786 18.786"><defs><style>.a{fill:#3d8779;}</style></defs><path class="a" d="M279,280.192a1.469,1.469,0,0,0,1.468,1.468h1.725a1.469,1.469,0,0,0,1.468-1.468v-1.725A1.469,1.469,0,0,0,282.192,277h-1.725A1.469,1.469,0,0,0,279,278.468Zm1.468-1.725h1.725v1.724h-1.725Z" transform="translate(-268.763 -266.836)"/><circle class="a" cx="0.702" cy="0.702" r="0.702" transform="translate(13.482 6.989)"/><circle class="a" cx="0.702" cy="0.702" r="0.702" transform="translate(10.392 6.989)"/><path class="a" d="M18.052,12.915a.734.734,0,0,0,.734-.734V4.4a2.939,2.939,0,0,0-2.935-2.935H14.9V.734a.734.734,0,1,0-1.468,0v.734H10.09V.734a.734.734,0,1,0-1.468,0v.734H5.32V.734a.734.734,0,1,0-1.468,0v.734H2.935A2.939,2.939,0,0,0,0,4.4V15.851a2.939,2.939,0,0,0,2.935,2.935H15.851a2.939,2.939,0,0,0,2.935-2.935.734.734,0,1,0-1.468,0,1.469,1.469,0,0,1-1.468,1.468H2.935a1.469,1.469,0,0,1-1.468-1.468V4.4A1.469,1.469,0,0,1,2.935,2.935h.917v.734a.734.734,0,0,0,1.468,0V2.935h3.3v.734a.734.734,0,0,0,1.468,0V2.935h3.339v.734a.734.734,0,0,0,1.468,0V2.935h.954A1.469,1.469,0,0,1,17.318,4.4v7.779A.734.734,0,0,0,18.052,12.915Z"/><circle class="a" cx="0.702" cy="0.702" r="0.702" transform="translate(3.932 13.45)"/><circle class="a" cx="0.702" cy="0.702" r="0.702" transform="translate(3.932 6.989)"/><ellipse class="a" cx="0.702" cy="0.843" rx="0.702" ry="0.843" transform="translate(3.932 10.079)"/><ellipse class="a" cx="0.702" cy="0.843" rx="0.702" ry="0.843" transform="translate(7.022 10.079)"/><circle class="a" cx="0.702" cy="0.702" r="0.702" transform="translate(7.022 6.989)"/><circle class="a" cx="0.702" cy="0.702" r="0.702" transform="translate(7.022 13.45)"/></svg>