<svg xmlns="http://www.w3.org/2000/svg" width="14.457" height="14.352" viewBox="0 0 14.457 14.352"><defs><style>.a{fill:#1c1c1c;}</style></defs><g transform="translate(0 0)"><path class="a" d="M253.5,423.173c-.119.03-.241.056-.361.078a.581.581,0,1,0,.212,1.143c.144-.027.288-.058.431-.093a.581.581,0,0,0-.281-1.128Z" transform="translate(-244.815 -410.057)"/><path class="a" d="M412.628,137.355a.581.581,0,0,0,1.1-.365c-.046-.139-.1-.278-.151-.414a.581.581,0,1,0-1.079.432C412.547,137.121,412.59,137.238,412.628,137.355Z" transform="translate(-399.642 -132.029)"/><path class="a" d="M321.472,394.008c-.1.068-.208.133-.315.195a.581.581,0,1,0,.581,1.007c.127-.073.253-.151.375-.232a.581.581,0,0,0-.641-.97Z" transform="translate(-310.895 -381.722)"/><path class="a" d="M428.8,207.87a.581.581,0,1,0-1.161.046c0,.123.006.247,0,.37a.581.581,0,1,0,1.162.026C428.8,208.164,428.8,208.016,428.8,207.87Z" transform="translate(-414.345 -200.921)"/><path class="a" d="M377.939,344.185a.581.581,0,0,0-.814.116c-.074.1-.151.2-.231.289a.581.581,0,0,0,.066.819c.014.012.028.023.043.033a.581.581,0,0,0,.777-.1c.1-.112.188-.228.276-.345A.581.581,0,0,0,377.939,344.185Z" transform="translate(-365.048 -333.428)"/><path class="a" d="M414.64,279.378a.581.581,0,0,0-.728.381c-.037.117-.077.235-.121.35a.581.581,0,0,0,1.086.414c.052-.137.1-.277.144-.416A.581.581,0,0,0,414.64,279.378Z" transform="translate(-400.893 -270.723)"/><path class="a" d="M6.154,14.887a6,6,0,0,1-1.491-.474L4.646,14.4c-.111-.052-.223-.109-.33-.167h0a6.2,6.2,0,0,1-.578-.361,6.065,6.065,0,0,1,.025-9.934l.021-.015a6.075,6.075,0,0,1,6.809-.055l-.454.656c-.126.183-.049.316.172.3l1.972-.177a.325.325,0,0,0,.294-.425l-.53-1.908c-.059-.214-.211-.24-.337-.057l-.455.658A7.177,7.177,0,0,0,5.994,1.8q-.279.048-.55.117h0l-.021.006A7.166,7.166,0,0,0,1.445,4.583c-.008.01-.017.02-.025.03-.033.044-.066.09-.1.135-.052.074-.1.151-.153.227-.006.009-.011.019-.016.028A7.165,7.165,0,0,0,.008,9.23s0,.01,0,.015c.007.146.018.294.034.439,0,.009,0,.018,0,.028.016.146.037.293.062.44a7.172,7.172,0,0,0,2.022,3.89l.007.008,0,0a7.323,7.323,0,0,0,.926.774,7.166,7.166,0,0,0,2.882,1.206.581.581,0,0,0,.205-1.144Z" transform="translate(0 -1.688)"/><path class="a" d="M206.457,83.2a.47.47,0,0,0-.47.47v4.685l4.285,2.215a.47.47,0,0,0,.432-.835l-3.776-1.952V83.668A.47.47,0,0,0,206.457,83.2Z" transform="translate(-199.586 -80.665)"/></g></svg>